<svg xmlns="http://www.w3.org/2000/svg" xmlns:xlink="http://www.w3.org/1999/xlink" width="1080" zoomAndPan="magnify" viewBox="0 0 810 809.999993" height="1080" preserveAspectRatio="xMidYMid meet" version="1.0"><defs><clipPath id="1df931a9a6"><path d="M 372 357 L 729 357 L 729 713.640625 L 372 713.640625 Z M 372 357 " clip-rule="nonzero"/></clipPath><clipPath id="c0cd85f296"><path d="M 81 96.390625 L 651 96.390625 L 651 677 L 81 677 Z M 81 96.390625 " clip-rule="nonzero"/></clipPath></defs><g clip-path="url(#1df931a9a6)"><path fill="#d9d9d9" d="M 550.859375 713.375 C 452.617188 713.375 372.695312 633.445312 372.695312 535.214844 C 372.695312 436.980469 452.617188 357.050781 550.859375 357.050781 C 649.101562 357.050781 729.023438 436.980469 729.023438 535.214844 C 729.023438 633.445312 649.101562 713.375 550.859375 713.375 Z M 550.859375 384.460938 C 467.734375 384.460938 400.109375 452.089844 400.109375 535.214844 C 400.109375 618.335938 467.734375 685.964844 550.859375 685.964844 C 633.984375 685.964844 701.613281 618.335938 701.613281 535.214844 C 701.613281 452.089844 633.984375 384.460938 550.859375 384.460938 Z M 550.859375 384.460938 " fill-opacity="1" fill-rule="nonzero"/></g><path fill="#d9d9d9" d="M 617.953125 621.679688 L 537.152344 540.890625 L 537.152344 411.875 L 564.566406 411.875 L 564.566406 529.546875 L 637.324219 602.292969 Z M 617.953125 621.679688 " fill-opacity="1" fill-rule="nonzero"/><g clip-path="url(#c0cd85f296)"><path fill="#d9d9d9" d="M 81.035156 676.125 L 114.511719 511.769531 C 94.855469 472.019531 84.898438 429.214844 84.898438 384.460938 C 84.898438 225.773438 214.007812 96.664062 372.695312 96.664062 C 503.128906 96.664062 617.53125 184.609375 650.917969 310.539062 L 624.417969 317.550781 C 594.222656 203.640625 490.710938 124.074219 372.695312 124.074219 C 229.117188 124.074219 112.300781 240.894531 112.300781 384.472656 C 112.300781 426.445312 121.980469 466.523438 141.066406 503.570312 L 143.28125 507.859375 L 116.164062 641.015625 L 249.3125 613.902344 L 253.597656 616.113281 C 290.65625 635.199219 330.726562 644.871094 372.695312 644.871094 L 372.695312 672.28125 C 328.605469 672.28125 284.703125 662.054688 245.398438 642.660156 L 81.035156 676.136719 Z M 81.035156 676.125 " fill-opacity="1" fill-rule="nonzero"/></g></svg>